<svg xmlns="http://www.w3.org/2000/svg" direction="ltr" width="362.99999122222243" height="342" viewBox="725 432 362.99999122222243 342" stroke-linecap="round" stroke-linejoin="round" style="background-color: rgb(249, 250, 251);"><defs/><g transform="matrix(1, 0, 0, 1, 767, 742)" opacity="1"><path d="M-1.7037,-2.6875 T23.2746,-18.3079 62.3727,-42.7931 84.788,-56.9971 97.8974,-65.7098 105.6279,-71.1751 110.3843,-74.6355 113.337,-77.1923 116.4527,-80.5356 119.6138,-83.6879 122.7326,-86.5693 126.6616,-90.4339 129.618,-93.4163 131.5965,-95.4234 133.6976,-97.3335 136.4023,-99.6043 139.4957,-102.4317 142.5459,-105.585 145.4735,-108.9067 148.2551,-112.5075 151.3457,-116.1499 155.0495,-119.0905 158.4295,-121.4682 160.9722,-123.5646 163.3938,-125.2802 165.9879,-126.861 169.2368,-129.0315 172.7339,-131.0318 176.4779,-132.4356 180.8003,-134.0007 184.349,-135.5561 188.307,-137.6055 192.1635,-139.57 195.6665,-141.3178 200.108,-143.207 204.1999,-144.7104 207.7171,-146.0426 211.4244,-146.8861 214.9154,-147.2178 218.0599,-147.3522 221.8662,-146.252 225.4733,-143.9534 228.088,-141.7859 230.392,-139.3033 232.7032,-136.9255 234.9453,-134.9196 237.159,-132.7857 239.2421,-130.6906 241.2895,-128.6689 243.8961,-126.0505 247.1911,-123.0033 250.7182,-120.0398 253.5326,-117.4046 256.2612,-114.4827 259.3584,-111.2568 262.2377,-108.7583 264.7367,-106.6447 266.9073,-104.6489 269.1388,-102.6088 271.7186,-100.1471 274.2629,-97.7169 276.6969,-95.221 279.237,-92.397 281.9506,-89.4972 284.5454,-86.8065 286.7226,-83.6519 288.5071,-79.9871 289.3037,-76.8052 289.9685,-73.6337 290.9522,-70.1331 291.84,-66.2887 292.3689,-62.3501 292.5449,-58.7651 292.5768,-55.4986 292.582,-52.4149 292.5997,-49.183 292.629,-45.8251 292.6381,-42.1957 292.3392,-38.1296 291.5171,-34.5397 290.1266,-31.5389 287.3653,-29.0753 283.2172,-27.0381 279.0176,-25.3778 275.1786,-24.5792 271.3616,-24.4622 267.4555,-24.4734 263.4869,-24.5085 259.4968,-24.5438 255.4999,-24.5739 251.1342,-24.8621 247.0192,-25.3011 243.1065,-25.8154 239.2075,-26.6404 235.8863,-27.608 232.2758,-29.3536 229.0365,-31.3325 226.6392,-32.9878 223.8692,-35.289 221.3116,-37.7056 218.7779,-40.2852 216.0899,-43.0234 213.5917,-45.6376 211.2886,-48.3199 208.9371,-51.4305 206.7089,-54.5339 205.1208,-57.0319 203.3007,-59.5503 202.2629,-60.8353 A3.4897,3.4897 0 0 1 207.7371,-65.1647 T208.4694,-64.2796 210.4763,-61.5749 212.5881,-58.1414 214.5129,-55.3604 216.2968,-52.9371 218.4135,-50.2301 221.0431,-47.432 223.7692,-44.6346 226.8395,-41.8165 229.4039,-39.3727 232.342,-37.1826 235.7056,-35.1984 238.6088,-33.8631 241.5122,-33.0073 244.3404,-32.4044 247.9831,-31.9717 251.8672,-31.5825 255.4986,-31.4271 259.4924,-31.4593 263.4723,-31.5018 267.4064,-31.5599 271.1852,-31.6458 274.9911,-31.8899 279.1053,-33.1036 283.0028,-35.2553 285.0656,-38.2521 285.3618,-42.1954 285.3704,-45.8234 285.3966,-49.1759 285.4009,-53.1131 285.3571,-56.9536 285.2042,-60.6905 284.6634,-64.3118 284.1234,-67.3463 283.6101,-70.4606 282.6484,-74.287 281.1219,-78.6117 279.174,-81.8776 277.0988,-84.3212 274.4965,-87.1723 271.6108,-90.2147 268.8011,-93.1809 266.2109,-95.7185 263.3962,-98.5111 260.3457,-101.5766 257.5318,-104.1349 254.7401,-106.72 251.5027,-109.9972 247.9716,-113.2914 244.5451,-116.1999 241.0063,-119.067 237.4012,-122.3508 234.3934,-125.5209 232.2139,-127.7842 230.1462,-129.8038 227.4768,-132.2947 224.586,-135.2041 221.9086,-137.9032 219.0764,-139.8763 215.7892,-140.5768 211.9755,-140.34 208.3661,-139.5584 204.5002,-138.1069 200.4377,-136.4815 196.2658,-134.4923 191.6923,-131.9035 188.1488,-129.7444 185.1592,-128.4168 181.5598,-127.1177 178.0552,-125.7857 175.0376,-124.7157 172.1097,-123.0815 168.7002,-121.0341 165.3536,-118.9143 162.0706,-116.327 158.5762,-113.9296 155.6865,-111.7989 153.0936,-108.7715 150.1005,-105.0029 146.9584,-101.5669 143.783,-98.5053 141.0767,-96.0079 138.2198,-93.8061 135.3811,-91.6002 133.3437,-89.6284 131.2885,-87.6642 129.206,-85.713 127.078,-83.7823 123.8393,-81.1396 119.5152,-77.4581 115.9863,-74.1863 112.801,-71.4489 108.1107,-67.7807 100.4403,-62.0168 87.4338,-52.9202 65.2503,-38.2734 26.4884,-13.2383 1.7037,2.6875 A3.182,3.182 0 0 1 -1.7037,-2.6875 Z" stroke-linecap="round" fill="#1d1d1d"/></g><g transform="matrix(1, 0, 0, 1, 757, 464)" opacity="1"><path d="M6.9995,-0.0838 L89.439,-1.0703 Q96.4385,-1.1541 96.3467,5.8453 L95.4096,77.2911 Q95.3178,84.2905 88.3179,84.3266 L7.8885,84.7414 Q0.8886,84.7775 0.8908,77.7775 L0.913,6.8382 Q0.9152,-0.1618 7.9151,-0.1139 L90.1312,0.4492 Q97.1311,0.4972 97.0383,7.4966 L96.0997,78.2841 Q96.0069,85.2835 89.007,85.2563 L6.148,84.9351 Q-0.8519,84.9079 -0.8037,77.9081 L-0.318,7.5025 Q-0.2697,0.5027 6.9995,-0.0838 M2.17,2.17L93.83,82.83M2.17,82.83L93.83,2.17" stroke="#1d1d1d" stroke-width="3.5" fill="none"/></g></svg>