<svg xmlns="http://www.w3.org/2000/svg" direction="ltr" width="693.527645693322" height="538.4271929054285" viewBox="170.18471525233593 88.88710145995793 693.527645693322 538.4271929054285" stroke-linecap="round" stroke-linejoin="round" style="background-color: rgb(249, 250, 251);"><defs/><g transform="matrix(1, 0, 0, 1, 419, 433)" opacity="1"><path d="M6.6312,-4.5908 T8.3949,-1.938 13.1286,5.5054 18.1331,13.0518 23.0977,18.9582 29.5301,25.9378 36.5515,32.8957 43.9109,37.8988 53.4081,42.3485 62.7227,46.3778 70.3578,49.3875 78.3627,52.5305 86.2561,55.6894 93.6858,58.2936 103.1202,60.1781 112.7379,61.2076 120.1371,58.9546 126.8998,53.1485 133.2875,45.0752 139.2185,34.9778 143.3895,26.1577 146.4764,18.8229 149.1644,10.9758 151.6501,2.9142 153.7063,-4.8086 155.0571,-12.3064 156.1242,-20.1794 156.5693,-27.9916 156.0979,-35.664 154.7114,-43.3909 152.7915,-51.9607 150.545,-61.1878 147.8969,-70.4254 144.6944,-80.3469 141.245,-91.528 137.6175,-103.0399 133.7197,-114.0018 129.962,-124.7021 126.2743,-134.6382 122.577,-143.9367 119.0707,-153.2047 115.7155,-162.1116 112.454,-170.8397 109.1197,-179.6166 105.5538,-188.1422 101.9385,-196.2382 98.3236,-204.3204 94.4506,-212.6875 90.2289,-221.5074 86.1779,-230.1245 81.3357,-240.0589 77.171,-251.2407 77.3508,-262.4868 80.632,-271.4313 87.2586,-279.5618 95.4285,-287.1017 102.7436,-291.7356 111.4767,-296.016 121.4713,-299.6895 132.3302,-302.8457 144.0266,-305.972 156.892,-309.1929 170.7737,-312.1181 185.0617,-314.2561 200.7882,-315.521 217.4175,-316.2487 235.1711,-315.8567 253.8203,-313.9866 271.7591,-311.4455 289.129,-308.5067 305.1908,-305.3285 319.0528,-302.2083 331.1531,-298.6729 341.9575,-294.0147 351.577,-288.5801 359.9329,-282.9212 366.7004,-277.2827 372.4049,-271.1299 377.652,-264.4122 382.4392,-257.5549 386.6846,-250.4595 390.3361,-242.7477 393.5281,-234.6506 396.5514,-226.5117 399.5445,-218.2194 402.5395,-210.3495 405.4222,-202.7687 408.9718,-192.9461 412.0545,-183.2432 413.6983,-176.0221 415.8749,-166.5654 418.1764,-153.4491 419.1985,-142.5679 419.4386,-135.0817 419.1463,-127.2163 418.1471,-119.4971 416.3337,-109.7342 413.9581,-99.3366 411.3844,-91.5336 408.1143,-84.9026 402.7134,-77.1304 396.7766,-69.748 390.927,-63.5789 384.2826,-57.9735 377.3946,-54.2444 368.7318,-51.9085 360.3017,-51.0825 353.2568,-51.0844 345.8793,-51.2109 337.5038,-52.0668 329.0884,-53.4846 321.2332,-55.2055 313.3705,-57.5613 306.1804,-59.9581 299.5183,-62.4198 290.6344,-66.2719 279.3914,-71.1579 267.0039,-78.5793 253.3947,-88.7099 240.0004,-98.7098 226.5817,-108.7918 212.3567,-119.4899 197.5,-130.2986 182.3776,-141.2233 167.049,-152.6447 150.7047,-164.6767 134.8659,-176.5347 121.3392,-187.0795 109.432,-196.61 98.4948,-205.5289 87.6625,-213.78 77.022,-221.2855 64.982,-229.6323 52.2833,-237.7584 41.2461,-243.7234 31.6223,-248.1807 22.6816,-251.7249 14.1763,-254.9825 6.6564,-258.0289 -0.5959,-260.6828 -7.8299,-262.9609 -14.7244,-264.8295 -23.4847,-266.4966 -33.7026,-267.5841 -44.6465,-268.4795 -55.8698,-268.9825 -66.5253,-268.2208 -75.5425,-267.4696 -84.8369,-266.5915 -96.0314,-264.6938 -107.2145,-262.359 -119.0797,-259.6427 -129.1047,-256.8638 -136.5205,-254.5997 -144.3976,-251.2199 -152.3762,-246.7973 -159.0507,-242.6521 -165.8529,-236.9745 -171.5313,-230.5485 -176.2393,-223.3681 -181.5394,-214.2801 -186.5571,-204.5459 -191.5337,-192.9693 -195.3391,-182.8725 -197.5711,-175.1661 -199.6854,-166.5311 -201.7482,-157.1361 -204.0198,-145.5811 -206.5621,-133.281 -208.6455,-122.747 -209.9587,-113.2329 -210.648,-104.2479 -210.9781,-95.665 -211.3433,-85.9404 -211.6449,-75.7044 -211.3695,-67.5007 -210.8143,-60.6099 -208.9804,-51.774 -205.4058,-43.4458 -200.8533,-37.9504 -194.0048,-32.6247 -186.0001,-28.2826 -177.8013,-25.7641 -167.0122,-24.5344 -156.647,-24.4684 -148.4104,-25.0692 -140.2658,-25.9913 -132.4066,-27.1482 -121.837,-28.7373 -109.7542,-30.2254 -99.9046,-30.9688 -90.9253,-31.8564 -82.4187,-34.2683 -75.8777,-38.6441 -70.1761,-44.8716 -66.1878,-53.0319 -66.1349,-64.4153 -67.5066,-75.7178 -68.9193,-83.8278 -70.8741,-90.8316 -73.0971,-97.7842 -76.7625,-108.1605 -80.5428,-118.5896 -84.138,-127.6625 -88.4639,-137.5683 -91.7939,-146.7601 -93.7129,-155.1332 -94.3003,-162.4478 -92.9803,-170.6772 -90.1597,-178.977 -86.7314,-186.0197 -82.8415,-192.6425 -78.7872,-199.0666 -74.2368,-206.357 -69.6133,-213.3515 -64.6668,-218.9228 -58.1282,-222.9562 -48.1365,-223.3333 -38.4947,-221.2096 -31.8102,-218.6121 -22.3653,-214.651 -11.0508,-209.7007 -1.6202,-203.6655 5.3876,-197.2866 10.6904,-191.3993 15.4523,-184.6025 19.2007,-176.5458 21.3664,-167.4796 21.5487,-158.4109 20.2863,-150.6209 17.8851,-143.3924 14.3649,-136.1148 10.3978,-129.5835 6.5584,-123.5305 2.4208,-114.8778 -1.2122,-105.6224 -4.318,-94.7898 -6.7074,-83.4374 -7.3548,-75.5875 -7.189,-67.7815 -6.7603,-59.5188 -5.469,-48.462 -4.0143,-38.055 -3.2956,-30.9711 -2.691,-20.7625 -2.7816,-9.8391 -4.0558,-2.1299 -6.8757,6.2064 -10.9716,14.4047 -16.0092,21.9708 -21.4671,28.9508 -28.0431,35.1107 -34.6692,41.4196 -39.7482,48.4495 -42.6309,56.9763 -41.8277,66.249 -39.047,75.294 -35.6149,82.9971 -31.5739,90.5985 -26.6913,99.0636 -21.3115,106.9585 -15.1341,113.4827 -7.5644,119.7639 0.1711,125.7661 8.0941,130.7672 16.7086,135.3767 24.7168,139.8661 31.6139,143.9455 38.6867,148.2128 47.1025,151.7157 55.1364,153.4359 63.2401,153.9194 71.8944,153.6148 80.5887,152.6307 89.256,150.7066 96.8417,148.5158 104.6935,145.8072 107.571,140.9389 102.8404,134.5014 95.7329,126.7743 87.9822,117.2036 81.0234,109.158 74.881,103.2284 68.1347,97.4905 60.5831,92.005 52.2253,86.2717 43.6594,80.7647 35.3688,75.9462 27.4584,71.4769 20.2455,67.4859 11.7895,62.944 3.0048,58.1074 -4.2266,53.7874 -11.6817,49.2373 -19.539,44.0464 -27.0892,38.4052 -33.4884,33.6142 -39.2195,29.7972 -45.5715,26.5495 -53.7984,22.7698 -61.878,18.6826 -68.5071,15.2902 -78.5194,10.2296 -90.1011,3.8043 -95.0336,0.7675 A6.5167,6.5167 0 0 1 -88.9664,-10.7675 T-83.6693,-8.4237 -75.1107,-4.47 -68.697,-1.5221 -61.9639,1.3263 -54.7423,4.4221 -46.8536,8.0753 -38.195,12.1447 -30.3473,16.4741 -23.778,21.2754 -17.79,26.2185 -11.1246,31.6363 -3.9219,36.936 3.1166,41.9573 10.1397,47.1101 18.093,52.5994 25.9029,57.5699 32.9586,61.7127 40.8474,66.1424 49.5699,70.8294 58.7008,75.8436 67.835,80.9832 76.7582,86.2847 84.7828,91.8649 91.9073,97.468 101.1575,106.2745 109.6133,115.3068 114.759,120.8171 119.9151,126.7349 123.3011,133.4633 124.3707,140.5774 123.7848,148.5662 118.9391,156.4051 110.2117,161.83 101.402,164.7422 93.1698,167.0814 85.0198,168.9974 76.7868,170.0188 68.0452,170.4027 57.7865,170.2324 48.3328,169.2509 39.3924,166.6364 30.4143,162.4455 23.2164,157.9671 16.4842,153.7602 9.0527,149.4465 -0.1513,144.4782 -9.0441,138.859 -17.337,132.4467 -26.7573,124.6549 -34.6175,116.5193 -40.6282,107.8888 -46.0359,98.8806 -50.5495,90.4142 -54.8681,80.7972 -58.3725,70.2175 -59.6919,60.1543 -58.427,50.0578 -55.1193,40.9693 -50.415,33.9359 -45.0018,28.1072 -38.5005,22.6376 -32.1369,17.082 -27.2571,11.4947 -22.5304,5.1149 -18.359,-2.6631 -16.5146,-13.5642 -16.5956,-26.5637 -17.6326,-39.686 -18.9959,-50.3183 -20.0973,-58.5317 -20.9218,-67.1703 -21.5056,-76.1992 -21.384,-85.7474 -20.4072,-94.5895 -19.0854,-102.946 -17.3886,-110.9088 -14.35,-120.5357 -10.2536,-129.898 -6.0557,-136.7549 -1.7124,-143.4993 2.1293,-150.6078 4.4387,-158.0049 4.5892,-165.8689 2.1288,-174.2185 -2.982,-182.1319 -8.4875,-188.6746 -13.9212,-193.2934 -22.5508,-197.4802 -31.4508,-200.825 -40.4654,-203.7492 -50.1736,-205.3216 -56.4668,-202.2591 -61.7308,-194.7166 -66.6367,-187.1099 -70.4115,-180.9719 -74.4125,-173.6761 -77.6874,-164.9685 -78.4234,-155.6645 -76.7537,-147.0527 -73.6604,-138.2292 -70.387,-130.0155 -67.7861,-123.2033 -65.1843,-116.1878 -62.4326,-109.1053 -59.944,-102.1241 -57.472,-94.8464 -54.9375,-86.7897 -52.8801,-78.449 -50.9227,-69.8674 -49.2228,-60.139 -49.7108,-49.8639 -52.4358,-41.1571 -57.3605,-33.7649 -63.2092,-27.5734 -68.6906,-23.1363 -75.2585,-19.7787 -83.3737,-17.6968 -91.5052,-16.761 -99.4404,-16.5488 -108.7306,-16.4217 -120.1046,-15.4682 -130.3043,-14.0451 -138.4425,-12.6335 -146.9685,-11.2784 -155.8547,-10.0896 -168.1638,-9.5501 -181.6398,-10.9521 -192.0795,-14.4653 -200.9164,-19.5165 -208.3918,-25.745 -214.3132,-33.2986 -218.8947,-43.4252 -221.3645,-56.4467 -221.9326,-67.3223 -221.861,-75.8665 -221.8293,-86.2564 -221.6362,-96.2306 -221.0315,-105.1193 -220.1551,-114.5986 -218.8464,-124.5369 -217.2136,-135.11 -215.5565,-147.3626 -214.1688,-159.3839 -212.802,-169.231 -211.1971,-178.6521 -209.2245,-187.6903 -206.858,-195.1782 -203.1036,-205.2507 -197.9452,-216.9157 -192.5478,-226.915 -186.6811,-236.6373 -180.8552,-244.178 -174.4199,-250.2284 -167.0626,-255.485 -159.2691,-259.7162 -149.6754,-264.3489 -140.9233,-267.8882 -130.2002,-271.392 -116.3789,-275.3784 -104.5154,-277.9878 -92.8952,-280.0947 -80.2444,-281.647 -68.0934,-282.5692 -55.9345,-283.0138 -43.5482,-282.1608 -32.2617,-280.6025 -20.9634,-278.4176 -11.3959,-275.8176 -4.203,-273.3998 3.3839,-270.5238 10.8318,-267.2449 17.8097,-263.729 26.1623,-260.0451 35.3329,-256.0125 45.245,-251.1544 56.8038,-244.8926 69.8021,-236.5905 81.9054,-228.2204 92.8061,-220.5493 103.88,-212.1553 114.7857,-203.3193 126.6397,-193.9107 140.0863,-183.5335 155.9257,-171.8233 172.3921,-159.9037 187.7222,-148.7557 203.0281,-138.0761 218.2141,-127.5474 232.7113,-117.3552 246.4779,-107.9703 260.394,-98.863 276.4467,-89.2327 290.6631,-81.6811 301.5932,-76.7919 310.5123,-73.3558 317.2834,-71.2415 324.0304,-69.4161 331.1962,-68.183 338.4907,-67.3524 345.6294,-67.1418 352.7636,-67.5062 361.0389,-68.0536 369.3392,-69.502 375.7999,-72.6173 381.6964,-77.5582 386.9976,-83.0689 392.2131,-89.3606 396.9626,-96.3973 400.2987,-103.7966 402.906,-113.0508 405.0019,-124.5843 405.792,-134.5998 405.513,-141.742 404.7544,-151.2849 402.8667,-163.6601 400.2935,-176.4548 397.2559,-188.9864 394.2829,-198.6556 391.569,-206.2044 388.565,-214.2261 385.5597,-222.427 382.5857,-230.4394 379.7824,-237.9209 376.7669,-244.8288 373.2207,-251.4216 369.0074,-258.0423 364.5789,-264.4505 360.1522,-270.159 354.6757,-275.6135 347.2497,-281.1105 338.5356,-286.2623 328.7572,-290.5618 317.1829,-293.9318 303.5416,-296.9782 287.7124,-300.0792 270.5661,-302.9333 252.9656,-305.3707 235.037,-307.115 217.847,-307.3786 201.5949,-306.5054 186.5441,-305.0894 172.9039,-302.7376 159.5803,-299.4933 147.1261,-295.7555 135.9861,-291.9511 126.1428,-288.2233 117.6604,-284.4164 110.2935,-280.2176 102.1386,-274.3473 94.4165,-266.9716 90.0912,-258.7409 89.8265,-249.7574 92.4684,-241.8396 95.7087,-234.581 99.6775,-226.1321 104.1635,-217.1669 108.1264,-208.5685 111.5621,-200.3831 115.0314,-192.0309 118.6073,-183.1312 121.8356,-174.1961 124.8417,-165.4064 127.9346,-156.446 131.1789,-147.2617 134.7385,-137.8028 138.481,-127.7957 142.4438,-117.2416 146.7526,-106.103 150.7965,-94.7716 154.7966,-83.8901 158.6724,-73.7308 161.8059,-64.1824 164.519,-54.7679 166.8567,-45.6127 168.5523,-36.4747 169.1943,-27.3734 168.8054,-18.5646 167.8009,-10.0723 166.3569,-1.633 164.4077,6.5388 162.2096,14.9754 159.7525,23.9628 156.9215,32.0013 153.9968,39.1599 149.116,48.4192 143.6125,57.1947 137.6019,64.4637 130.7868,70.7514 123.6524,74.233 115.6034,75.5258 106.3048,74.5523 97.2559,73.0293 89.4482,71.1842 81.4505,68.7131 73.6279,66.0714 65.4339,63.5483 57.4105,61.1172 47.0837,57.3902 35.106,52.1095 26.3748,46.6009 20.3415,40.7373 14.6539,34.3159 9.5433,28.2557 4.7727,21.7849 -0.3262,13.9088 -4.769,7.1754 -6.6312,4.5908 A8.0653,8.0653 0 0 1 6.6312,-4.5908 Z" stroke-linecap="round" fill="#f87777"/></g></svg>